<?xml version="1.0" encoding="UTF-8"?>
<svg xmlns="http://www.w3.org/2000/svg" id="Layer_1" data-name="Layer 1" width="251" height="124.75" viewBox="0 0 251 124.75">
  <defs>
    <style>
      .cls-1 {
        fill: #fff;
      }

      .cls-2 {
        fill: #b11221;
      }

      .cls-3 {
        fill: #005fac;
      }
    </style>
  </defs>
  <rect class="cls-2" x="0" y="88.85" width="251" height="35.9"></rect>
  <path class="cls-1" d="m25.31,96.35v20.56h-5.25v-13.88s-2.1,13.88-2.1,13.88h-3.72l-2.2-13.57v13.57h-5.25v-20.56h7.77c.23,1.24.47,2.69.71,4.37l.85,5.23,1.38-9.6h7.81Zm2.41,0v20.56h10.41v-4.11h-4.41v-4.52h3.75v-3.91h-3.75v-3.9h4.01v-4.11h-10.01Zm18.13,3.52c.7,0,1.17.1,1.43.31.26.2.39.63.39,1.28v1.13c0,.91-.14,1.44-.41,1.61-.27.17-.74.25-1.42.25v-4.57Zm-6-3.52v20.56h6v-9.27c.83,0,1.34.13,1.53.39.2.26.29.94.29,2.04v6.83h5.57v-5.42c0-1.66-.05-2.67-.15-3.04-.1-.37-.36-.77-.76-1.21-.41-.44-1.21-.79-2.39-1.05,1.31-.11,2.19-.44,2.64-.99.45-.55.67-1.63.67-3.23,0-1.75-.32-3.03-.95-3.83-.63-.8-1.45-1.3-2.45-1.49-1-.19-2.92-.29-5.75-.29h-4.25Zm29.74,8.95v-1.95c0-1.92-.18-3.33-.54-4.24-.36-.91-1.12-1.67-2.27-2.28-1.15-.61-2.61-.91-4.38-.91-1.3,0-2.45.2-3.46.59-1,.39-1.79.93-2.35,1.62-.57.69-.9,1.4-1.02,2.14-.11.74-.17,1.85-.17,3.33v6.01c0,2.01.19,3.52.56,4.53.37,1,1.13,1.79,2.27,2.36,1.14.57,2.59.85,4.35.85s3.12-.34,4.27-1.01c1.15-.67,1.9-1.45,2.24-2.34.34-.89.51-2.4.51-4.53v-.8h-6v2.59c0,1.13-.07,1.85-.21,2.15-.14.31-.43.46-.88.46s-.76-.15-.9-.46c-.13-.3-.2-.96-.2-1.95v-9.55c0-1.04.07-1.72.2-2.03.13-.31.45-.47.94-.47.44,0,.72.13.85.39.13.26.19.91.19,1.95v3.57h6Zm15.95-8.95h-6v7.35h-1.8v-7.35h-6v20.56h6v-8.64h1.8v8.64h6v-20.56Zm9.6,13.22h-2.07c.16-1.82.54-4.7,1.15-8.64.3,3.43.61,6.31.91,8.64m3.18-13.22h-8.67l-3.06,20.56h6.2l.36-3.7h2.15l.32,3.7h6.13l-3.43-20.56Zm17.85,0h-5.02v9.26l-3.36-9.26h-5.02v20.56h5.02v-9.35l3.12,9.35h5.26v-20.56Zm14.5,0h-13.12v4.11h3.55v16.45h6v-16.45h3.56v-4.11Zm19.23,6.22v-.81c0-1.63-.18-2.79-.54-3.47-.36-.68-1.08-1.25-2.18-1.7-1.1-.45-2.43-.67-3.99-.67-1.43,0-2.64.21-3.65.62-1.01.41-1.74.98-2.19,1.71-.45.73-.68,1.88-.68,3.45,0,1.09.16,1.99.48,2.69.32.7.72,1.25,1.21,1.65.48.4,1.47,1.04,2.96,1.92,1.49.87,2.43,1.49,2.81,1.87.37.37.56,1.17.56,2.38,0,.55-.1.97-.29,1.25-.19.28-.49.42-.89.42s-.68-.11-.84-.33c-.16-.22-.24-.72-.24-1.49v-2.5h-5.57v1.35c0,1.54.18,2.73.53,3.57.35.84,1.1,1.53,2.23,2.07,1.14.54,2.51.81,4.11.81,1.47,0,2.75-.24,3.85-.71,1.1-.47,1.85-1.05,2.23-1.75.38-.69.58-1.77.58-3.24,0-2.01-.35-3.48-1.04-4.38-.69-.91-2.38-2.07-5.05-3.48-.93-.49-1.5-.91-1.7-1.26-.21-.35-.31-.86-.31-1.55,0-.53.09-.93.28-1.19.18-.26.46-.39.82-.39.33,0,.57.1.71.29.14.19.21.65.21,1.36v1.52h5.57Zm2.38-6.22v20.56h10.41v-4.11h-4.41v-4.52h3.75v-3.91h-3.75v-3.9h4.01v-4.11h-10.01Zm18.13,3.52c.69,0,1.17.1,1.43.31.26.2.39.63.39,1.28v1.13c0,.91-.14,1.44-.41,1.61-.27.17-.75.25-1.42.25v-4.57Zm-6-3.52v20.56h6v-9.27c.83,0,1.34.13,1.53.39.19.26.29.94.29,2.04v6.83h5.58v-5.42c0-1.66-.05-2.67-.15-3.04-.1-.37-.35-.77-.76-1.21-.41-.44-1.21-.79-2.39-1.05,1.31-.11,2.19-.44,2.64-.99.45-.55.67-1.63.67-3.23,0-1.75-.32-3.03-.95-3.83-.63-.8-1.45-1.3-2.45-1.49-1-.19-2.92-.29-5.75-.29h-4.25Zm30,0h-6.33l-.42,3.82c-.35,3.07-.68,6.59-.99,10.56-.31-3.92-.84-8.72-1.57-14.38h-6.33l3.47,20.56h9.12l3.06-20.56Zm7.58,0h-6v20.56h6v-20.56Zm15.86,8.95v-1.95c0-1.92-.18-3.33-.54-4.24-.36-.91-1.12-1.67-2.27-2.28-1.15-.61-2.61-.91-4.38-.91-1.3,0-2.46.2-3.46.59-1,.39-1.79.93-2.35,1.62-.57.69-.9,1.4-1.02,2.14-.11.74-.17,1.85-.17,3.33v6.01c0,2.01.19,3.52.56,4.53.37,1,1.13,1.79,2.27,2.36,1.14.57,2.59.85,4.35.85s3.11-.34,4.27-1.01c1.15-.67,1.9-1.45,2.24-2.34.34-.89.51-2.4.51-4.53v-.8h-6v2.59c0,1.13-.07,1.85-.21,2.15-.14.31-.43.46-.88.46s-.76-.15-.9-.46c-.13-.3-.2-.96-.2-1.95v-9.55c0-1.04.07-1.72.2-2.03.13-.31.45-.47.94-.47.44,0,.72.13.85.39.13.26.19.91.19,1.95v3.57h6Zm2.15-8.95v20.56h10.41v-4.11h-4.41v-4.52h3.75v-3.91h-3.75v-3.9h4.01v-4.11h-10.01Zm24.85,6.22v-.81c0-1.63-.18-2.79-.54-3.47-.36-.68-1.08-1.25-2.18-1.7-1.1-.45-2.43-.67-3.99-.67-1.43,0-2.64.21-3.65.62-1.01.41-1.74.98-2.19,1.71-.45.73-.68,1.88-.68,3.45,0,1.09.16,1.99.48,2.69.32.7.72,1.25,1.21,1.65.49.4,1.47,1.04,2.97,1.92,1.49.87,2.43,1.49,2.81,1.87.37.37.56,1.17.56,2.38,0,.55-.1.97-.29,1.25-.2.28-.49.42-.89.42s-.68-.11-.83-.33c-.16-.22-.24-.72-.24-1.49v-2.5h-5.57v1.35c0,1.54.18,2.73.53,3.57.35.84,1.1,1.53,2.23,2.07,1.14.54,2.51.81,4.11.81,1.46,0,2.75-.24,3.85-.71,1.1-.47,1.85-1.05,2.23-1.75.39-.69.58-1.77.58-3.24,0-2.01-.35-3.48-1.04-4.38-.69-.91-2.38-2.07-5.05-3.48-.93-.49-1.5-.91-1.7-1.26-.21-.35-.31-.86-.31-1.55,0-.53.09-.93.28-1.19.18-.26.46-.39.82-.39.33,0,.57.1.71.29.14.19.21.65.21,1.36v1.52h5.58Z"></path>
  <path class="cls-3" d="m16.01.2v66.93h9.71v16.78H0V.2h16.01ZM29.55.2v83.71h27.74v-16.78h-11.72v-18.37h9.97v-15.89h-9.97v-15.9h10.67V.2h-26.69Zm53.34,53.87h-5.53c.21-3.71.56-8.51,1.07-14.38.51-5.87,1.17-12.82,1.98-20.85.43,6.99.86,13.43,1.27,19.3.41,5.87.82,11.19,1.21,15.94M91.29.2h-23.07l-4.08,41.86-4.08,41.86h16.52l.44-7.51.44-7.51h5.82l.43,7.51.43,7.51h16.3l-4.58-41.86L91.29.2Zm27.82,14.31c.86,0,1.59.06,2.18.19.59.12,1.04.31,1.35.56.31.25.57.57.77.96.2.39.34.86.43,1.39.09.53.15,1.41.2,2.63.04,1.22.07,2.77.07,4.67v32.54c0,2.79-.07,5.05-.2,6.76-.13,1.71-.33,2.88-.59,3.51-.26.63-.74,1.1-1.44,1.42-.7.32-1.62.47-2.76.47V14.51ZM103.1.2v83.71h20.15c1.91,0,3.58-.07,5.01-.21,1.43-.14,2.62-.35,3.57-.64.95-.28,1.82-.68,2.62-1.18.8-.5,1.52-1.11,2.16-1.82.65-.72,1.19-1.57,1.65-2.56.45-.99.81-2.12,1.07-3.39.26-1.27.45-3.16.58-5.67.13-2.51.19-5.65.19-9.4v-29.32c0-3.96-.04-7.27-.13-9.93-.09-2.66-.22-4.66-.4-6.02-.18-1.35-.49-2.64-.93-3.87-.44-1.23-1.02-2.39-1.73-3.5-.71-1.1-1.58-2.05-2.62-2.84-1.04-.79-2.23-1.43-3.59-1.91s-3.35-.85-5.96-1.09c-2.61-.24-5.84-.36-9.7-.36h-11.96Zm40.18,0v83.71h27.73v-16.78h-11.72v-18.37h9.97v-15.89h-9.97v-15.9h10.67V.2h-26.68Zm48.29,14.31c.91,0,1.69.1,2.32.31.63.21,1.12.52,1.46.93.34.41.6,1.05.77,1.92.17.87.26,1.96.26,3.28v4.58c0,1.84-.09,3.3-.27,4.39-.18,1.09-.45,1.8-.8,2.13-.36.33-.85.59-1.47.75-.62.17-1.38.25-2.27.25V14.51ZM175.56.2v83.71h16.01v-37.79c1.09,0,1.97.13,2.65.4.67.27,1.14.67,1.4,1.21.26.53.45,1.5.58,2.89.13,1.39.19,3.2.19,5.45v27.85h14.87v-22.11c0-3.38-.03-6.11-.1-8.17-.07-2.07-.17-3.48-.3-4.23-.13-.75-.37-1.54-.71-2.36-.34-.82-.78-1.69-1.32-2.58-.54-.9-1.35-1.71-2.41-2.42-1.06-.72-2.38-1.34-3.96-1.88,1.74-.22,3.2-.67,4.37-1.34,1.17-.67,2.05-1.57,2.65-2.68.59-1.12,1.04-2.77,1.34-4.96.3-2.18.45-4.9.45-8.16,0-3.56-.21-6.64-.63-9.23-.42-2.59-1.05-4.7-1.9-6.33-.84-1.63-1.81-2.94-2.89-3.96-1.09-1.01-2.3-1.71-3.64-2.11-1.34-.4-3.28-.69-5.83-.89-2.55-.2-5.72-.3-9.49-.3h-11.32Zm73.86,25.94v-3.19c0-3.21-.12-5.95-.36-8.22-.24-2.27-.59-4.08-1.06-5.42-.47-1.34-1.19-2.56-2.16-3.67-.96-1.11-2.18-2.11-3.63-2.99-1.46-.88-3.07-1.54-4.83-1.98-1.76-.44-3.68-.66-5.75-.66-1.89,0-3.65.2-5.26.61-1.62.4-3.09,1.01-4.43,1.82-1.34.81-2.49,1.77-3.46,2.89-.97,1.12-1.75,2.39-2.35,3.82-.6,1.43-1.05,3.28-1.35,5.54-.3,2.26-.45,4.94-.45,8.03,0,2.15.11,4.1.32,5.86.21,1.76.53,3.33.95,4.72.42,1.38.9,2.61,1.43,3.69.53,1.08,1.12,2.01,1.76,2.8.64.78,1.62,1.8,2.93,3.05,1.31,1.25,2.96,2.74,4.95,4.47,1.98,1.71,3.6,3.17,4.84,4.39s2.11,2.2,2.61,2.93c.49.73.85,1.88,1.1,3.44.24,1.56.37,3.53.37,5.91,0,1.08-.06,2.03-.19,2.85-.13.82-.32,1.5-.58,2.05-.26.55-.58.96-.97,1.23-.39.28-.85.41-1.38.41s-.98-.11-1.34-.33c-.37-.22-.65-.54-.86-.98-.21-.43-.36-1.14-.47-2.12-.1-.98-.15-2.22-.15-3.75v-9.86h-14.87v5.29c0,3.03.12,5.71.35,8.05.23,2.34.58,4.33,1.05,5.98.47,1.65,1.2,3.15,2.18,4.51.99,1.36,2.24,2.57,3.75,3.63,1.51,1.06,3.18,1.86,5,2.39,1.82.53,3.8.8,5.93.8,1.95,0,3.77-.23,5.48-.69,1.7-.46,3.29-1.15,4.76-2.08,1.47-.92,2.69-1.96,3.68-3.1.99-1.14,1.74-2.4,2.25-3.76.51-1.36.9-3.1,1.15-5.23.26-2.12.39-4.62.39-7.5,0-3.96-.23-7.37-.69-10.24-.46-2.87-1.15-5.19-2.07-6.97-.92-1.78-2.49-3.81-4.72-6.09s-5.11-4.81-8.64-7.59c-1.23-.96-2.22-1.86-2.97-2.68-.75-.82-1.25-1.57-1.52-2.26-.28-.68-.49-1.53-.62-2.54-.14-1.01-.21-2.19-.21-3.54,0-1.05.06-1.96.18-2.74.12-.78.3-1.43.54-1.94.24-.52.54-.9.89-1.16.35-.26.76-.39,1.23-.39.43,0,.8.1,1.11.29.31.19.55.48.74.86.18.39.32,1.02.42,1.92.09.89.14,2.04.14,3.44v6.01h14.87Z"></path>
</svg>
